<?xml version="1.0" encoding="UTF-8"?>
<svg id="Layer_1" data-name="Layer 1" xmlns="http://www.w3.org/2000/svg" version="1.1" viewBox="0 0 200 200">
  <defs>
    <style>
      .cls-1 {
        fill: #000;
        stroke-width: 0px;
      }
    </style>
  </defs>
  <path class="cls-1" d="M51.3,0c32.5,0,65,0,97.5,0,2,.3,4.1.5,6.1,1,22.6,5.1,37.1,18.8,43.3,41.1.8,2.9,1.1,6,1.6,9v97.5c-.1.7-.2,1.4-.4,2.1-1.3,5.2-2,10.7-4.2,15.5-9.9,21.5-27,33-50.8,33.4-29.6.4-59.3.1-88.9,0-11.5,0-22.1-3.1-31.5-9.8C8.2,178.5.3,162.9.2,143.5c0-29.1,0-58.2,0-87.3,0-3.7.2-7.6,1-11.2C6.2,22.3,20,7.8,42.3,1.6,45.2.8,48.3.5,51.3,0ZM182.1,99.8c0-14.4,0-28.8,0-43.3,0-4.6-.5-9.1-2-13.4-5.6-15.9-19.3-25.4-36.6-25.5-29,0-58.1,0-87.1,0-4.3,0-8.9.6-13,2-16,5.4-25.5,19.2-25.5,36.4,0,29,0,58.1,0,87.1,0,4.5.5,8.9,2,13.2,5.6,15.7,19.2,25.3,36.2,25.3,29.2,0,58.5,0,87.7,0,13.1,0,23.6-5.3,31.4-15.9,4.9-6.7,6.9-14.4,6.9-22.7,0-14.5,0-29,0-43.5Z"/>
  <path class="cls-1" d="M151.5,99.8c0,28.2-23.2,51.5-51.5,51.5-28.3,0-51.5-23.3-51.4-51.5,0-28.2,23.1-51.3,51.4-51.4,28.2,0,51.5,23.1,51.5,51.4ZM133.7,99.8c0-18.6-15.2-33.7-33.7-33.7-18.6,0-33.7,15.2-33.7,33.7,0,18.6,15.2,33.7,33.7,33.7,18.6,0,33.7-15.2,33.7-33.7Z"/>
  <path class="cls-1" d="M153.9,33.4c7.1.2,12.9,6.2,12.7,13.1-.2,7.3-6.2,13-13.5,12.7-7-.2-12.7-6.3-12.5-13.1.2-7.2,6.2-12.9,13.3-12.7Z"/>
</svg>